# Blender v2.82 (sub 7) OBJ File: 'Dice08.blend'
# www.blender.org
mtllib Dice08.mtl
o Cube_Cube.001
v 0.003266 -0.003525 0.093209
v 0.003269 0.003010 0.093212
v -0.003269 0.003010 0.093212
v -0.003266 -0.003525 0.093209
v -0.093467 0.003256 0.003260
v -0.093468 0.003266 -0.003266
v -0.093468 -0.003266 -0.003266
v -0.093455 -0.003279 0.003266
v 0.003266 -0.093468 0.003266
v -0.003266 -0.093468 0.003266
v -0.003266 -0.093468 -0.003266
v 0.003266 -0.093468 -0.003266
v -0.003266 0.003266 -0.093468
v 0.003266 0.003266 -0.093468
v 0.003266 -0.003266 -0.093468
v -0.003266 -0.003266 -0.093468
v 0.003269 0.093453 0.003260
v 0.003266 0.093468 -0.003266
v -0.003266 0.093468 -0.003266
v -0.003269 0.093453 0.003260
v 0.093467 0.003256 0.003260
v 0.093455 -0.003279 0.003266
v 0.093468 -0.003266 -0.003266
v 0.093468 0.003266 -0.003266
vt 0.512185 0.311507
vt 0.280443 0.177691
vt 0.512411 0.044269
vt 0.260296 0.457177
vt 0.028335 0.323718
vt 0.259894 0.189563
vt 0.460571 0.670195
vt 0.691418 0.535616
vt 0.691914 0.803190
vt 0.505326 0.323385
vt 0.273987 0.457169
vt 0.273585 0.189569
vt 0.712491 0.815019
vt 0.944003 0.680783
vt 0.944499 0.948396
vt 0.943463 0.389435
vt 0.943959 0.657048
vt 0.711951 0.523671
vt 0.705617 0.803165
vt 0.705121 0.535551
vt 0.937129 0.668928
vt 0.512213 0.335240
vt 0.517190 0.316501
vt 0.524065 0.328362
vt 0.700071 0.516867
vt 0.693227 0.528746
vt 0.691939 0.816893
vt 0.705643 0.816868
vt 0.955839 0.663878
vt 0.949009 0.675758
vt 0.261732 0.182717
vt 0.268585 0.170851
vt 0.280896 0.469011
vt 0.269040 0.475881
vt 0.262145 0.464039
vt 0.513032 0.602086
vt 0.525916 0.335198
vt 0.526735 0.602044
vt 0.526120 0.044334
vt 0.525894 0.311545
vt 0.273595 0.165837
vt 0.505573 0.032408
vt 0.506217 0.613974
vt 0.274046 0.480879
vt 0.253463 0.469054
vt 0.021501 0.335596
vt 0.021466 0.311861
vt 0.253025 0.177706
vn -0.5763 0.5763 0.5794
vn 0.5774 0.5774 -0.5774
vn -0.5774 -0.5774 0.5774
vn 0.5763 0.5763 0.5794
vn 0.5774 -0.5774 -0.5774
vn -0.5774 0.5774 -0.5774
vn -0.5774 -0.5774 -0.5774
vn 0.0000 -0.0005 1.0000
vn -1.0000 -0.0009 0.0011
vn 0.0000 -1.0000 0.0000
vn -0.0000 0.0000 -1.0000
vn 0.0000 1.0000 0.0023
vn 1.0000 -0.0009 0.0011
vn 0.0000 -0.7071 0.7071
vn -0.7061 -0.0006 0.7081
vn -0.7071 0.0000 -0.7071
vn 0.0000 -0.7071 -0.7071
vn -0.7071 -0.7071 0.0000
vn 0.7071 0.7071 0.0013
vn -0.7071 0.7071 0.0013
vn 0.7071 -0.7071 -0.0000
vn 0.7071 0.0000 -0.7071
vn 0.0000 0.7071 -0.7071
vn 0.0000 0.7052 0.7090
vn 0.7061 -0.0006 0.7081
vn 0.5774 -0.5774 0.5774
usemtl DefaultMat
s off
f 3/1/1 20/2/1 5/3/1
f 24/4/2 14/5/2 18/6/2
f 4/7/3 8/8/3 10/9/3
f 2/10/4 21/11/4 17/12/4
f 12/13/5 15/14/5 23/15/5
f 19/16/6 13/17/6 6/18/6
f 11/19/7 7/20/7 16/21/7
f 1/22/8 2/10/8 3/23/8 4/24/8
f 5/25/9 6/18/9 7/20/9 8/26/9
f 9/27/10 10/9/10 11/19/10 12/28/10
f 13/17/11 14/29/11 15/30/11 16/21/11
f 17/12/12 18/31/12 19/32/12 20/2/12
f 21/11/13 22/33/13 23/34/13 24/35/13
f 9/36/14 1/22/14 4/37/14 10/38/14
f 3/1/15 5/3/15 8/39/15 4/40/15
f 6/18/16 13/17/16 16/21/16 7/20/16
f 15/14/17 12/13/17 11/19/17 16/21/17
f 10/9/18 8/8/18 7/20/18 11/19/18
f 24/4/19 18/6/19 17/12/19 21/11/19
f 19/41/20 6/42/20 5/3/20 20/2/20
f 22/33/21 9/36/21 12/43/21 23/44/21
f 14/5/22 24/4/22 23/45/22 15/46/22
f 13/47/23 19/48/23 18/6/23 14/5/23
f 20/2/24 3/1/24 2/10/24 17/12/24
f 1/22/25 22/33/25 21/11/25 2/10/25
f 9/36/26 22/33/26 1/22/26
